<?xml version="1.0" standalone="no"?>
<!DOCTYPE svg PUBLIC "-//W3C//DTD SVG 20010904//EN"
 "http://www.w3.org/TR/2001/REC-SVG-20010904/DTD/svg10.dtd">
<svg version="1.0" xmlns="http://www.w3.org/2000/svg"
 width="200.000000pt" height="200.000000pt" viewBox="0 0 200.000000 200.000000"
 preserveAspectRatio="xMidYMid meet">
<metadata>
Created by potrace 1.14, written by Peter Selinger 2001-2017
</metadata>
<g transform="translate(0.000000,200.000000) scale(0.100000,-0.100000)"
fill="#000000" stroke="none">
<path d="M845 1756 c-185 -45 -347 -181 -430 -361 -44 -94 -58 -160 -57 -269
1 -248 135 -464 356 -575 89 -45 176 -64 286 -64 360 0 641 279 642 639 1 109
-13 175 -57 269 -82 179 -238 312 -422 359 -73 19 -245 20 -318 2z m317 -263
c175 -82 270 -273 227 -460 -10 -45 -8 -58 34 -193 25 -80 42 -146 39 -147 -4
-2 -71 12 -149 31 l-142 33 -58 -19 c-83 -28 -206 -22 -286 15 -254 117 -321
453 -129 650 93 96 175 129 307 124 76 -2 100 -8 157 -34z"/>
<path d="M751 1164 c-12 -15 -21 -32 -21 -39 0 -23 41 -65 64 -65 38 0 66 28
66 65 0 62 -71 87 -109 39z"/>
<path d="M950 1170 c-39 -39 -11 -110 45 -110 29 0 65 36 65 65 0 27 -40 65
-68 65 -12 0 -31 -9 -42 -20z"/>
<path d="M1140 1170 c-11 -11 -20 -31 -20 -45 0 -14 9 -34 20 -45 11 -11 31
-20 45 -20 14 0 34 9 45 20 11 11 20 31 20 45 0 14 -9 34 -20 45 -11 11 -31
20 -45 20 -14 0 -34 -9 -45 -20z"/>
<path d="M677 374 c-4 -4 -7 -38 -7 -76 l0 -68 60 0 c53 0 60 2 60 20 0 16 -7
20 -37 21 -31 2 -33 3 -10 6 38 6 38 42 0 44 -24 1 -23 2 7 8 26 4 35 11 35
26 0 17 -8 20 -50 23 -28 2 -54 0 -58 -4z"/>
<path d="M818 369 c-21 -12 -26 -107 -6 -127 7 -7 31 -12 55 -12 36 0 43 3 43
20 0 16 -7 20 -30 20 -27 0 -30 3 -30 30 0 27 3 30 30 30 25 0 30 4 30 25 0
22 -4 25 -37 25 -21 0 -46 -5 -55 -11z"/>
<path d="M930 306 c0 -74 1 -76 25 -76 20 0 25 5 25 25 0 16 6 25 15 25 9 0
15 -9 15 -25 0 -20 5 -25 25 -25 26 0 26 1 23 73 -3 66 -5 72 -25 75 -19 3
-23 -1 -23 -22 0 -32 -27 -35 -32 -3 -2 14 -11 23 -25 25 -22 3 -23 0 -23 -72z"/>
<path d="M1095 351 c-8 -17 -18 -51 -22 -76 l-6 -45 32 0 c21 0 31 5 31 15 0
8 5 15 10 15 6 0 10 -7 10 -15 0 -10 10 -15 31 -15 31 0 32 0 27 43 -8 69 -28
101 -65 105 -27 3 -34 -2 -48 -27z m55 -41 c0 -5 -4 -10 -10 -10 -5 0 -10 5
-10 10 0 6 5 10 10 10 6 0 10 -4 10 -10z"/>
<path d="M1210 355 c0 -16 6 -25 15 -25 11 0 15 -12 15 -50 0 -49 1 -50 30
-50 29 0 30 1 30 50 0 38 4 50 15 50 9 0 15 9 15 25 0 24 -3 25 -60 25 -57 0
-60 -1 -60 -25z"/>
</g>
</svg>
